<svg xmlns="http://www.w3.org/2000/svg" viewBox="0 0 512 512"><title>icones</title><g id="Camada_2" data-name="Camada 2"><path d="M243.8,247.48l-31.29,30.26c-24.39-24.62-41.61-42-43.87-44.17-9.18-8.88-21.93-6.25-22.25-6.22-17.14,1.67-34.3-5-44.54-14.87C87.19,198.3,21.59,126.41,5.55,108.82a5.54,5.54,0,0,1,.17-7.65l1.64-1.65a5.73,5.73,0,0,1,8.05-.08l82,79.35a5.74,5.74,0,0,0,8-.07l.17-.17a5.53,5.53,0,0,0-.07-7.91l-82-79.37a5.52,5.52,0,0,1-.07-7.9l1.77-1.78a5.76,5.76,0,0,1,8-.08l81.86,78.88a5.76,5.76,0,0,0,8-.08,5.53,5.53,0,0,0-.07-7.9L40.49,72.51a5.53,5.53,0,0,1-.07-7.91l1.23-1.23a5.74,5.74,0,0,1,8-.07l81.87,79.19a5.74,5.74,0,0,0,8-.07l1.05-1a5.54,5.54,0,0,0-.07-7.92L58.7,54.27a5.55,5.55,0,0,1-.06-7.92L60,45a5.77,5.77,0,0,1,7.72-.36c15.69,13,73.17,60.9,97.9,84.83,27.17,26.28,26.13,50.41,25.72,54.69a5.56,5.56,0,0,0,0,1.08c.84,7.08,2.64,14.83,6.51,19.07C200,206.66,218.09,223.59,243.8,247.48Z"/><path d="M457.57,463.38c-2.5,3.31-17.94,18.78-21.28,21.3-3.7,2.81-16.81.06-20.2-2.16-2-1.33-89-89-159.26-160l33.23-32.14c73.25,67.81,163.58,151.18,165,153.17C457.33,446.81,460.35,459.68,457.57,463.38Z"/><path d="M376.91,189c-29.2,28-58.59,56.77-86.86,84.76l-8.63,8.57Q264.89,298.74,249,314.62q-7,7-13.89,13.94c-82,82.38-144.64,147.72-148.41,151-8,7.2-18.35,7.64-23.36,2.63L46.26,465c-6.89-6.91.41-21.52,7.23-27.85,4.36-4,90.35-82.09,151.82-137.88l15-13.64,17.75-16.1.08-.07c5.65-5.14,10.66-9.68,14.84-13.47l13.89-12.6S258,222,288.54,188.25s188.15-166,212.8-148.35S517.08,54.49,376.91,189Z"/><path d="M290.05,273.78l-8.63,8.57Q264.89,298.74,249,314.62q-7,7-13.89,13.94l-.85-.84L248.45,314l32.85-31.79Z"/><path d="M238.1,269.57l-17.2,16.65-14.58,14.1-1-1,15-13.64Z"/></g></svg>