<svg id="Camada_1" data-name="Camada 1" xmlns="http://www.w3.org/2000/svg" viewBox="0 0 512 512"><defs><style>.cls-1{fill:#2a8b12;}</style></defs><title>reutilize-01</title><path class="cls-1" d="M491.08,198a72.69,72.69,0,0,0-79.2-64.4,63.13,63.13,0,0,0-64.5-88.7,63.75,63.75,0,0,0-28.6,10.5A74,74,0,0,0,178.18,51a61.52,61.52,0,0,0-21-6.1,63.07,63.07,0,0,0-68.9,74.8,70.69,70.69,0,0,0-4.9,140.9c.8.1,1.6.1,2.3.2a40.15,40.15,0,0,0-6.4,21.9,40.73,40.73,0,0,0,73.4,24.3,63.24,63.24,0,0,0,86.1-11.1,75.65,75.65,0,0,0,8.3.4,86.66,86.66,0,0,0,38.1-8.7,63,63,0,0,0,42.5,23.5,62,62,0,0,0,24-2,40.71,40.71,0,0,0,71.6-26.5c0-1.4-.1-2.8-.2-4.2l3.6-.3A72.49,72.49,0,0,0,491.08,198Z"/><path class="cls-1" d="M177.2,316.67a.68.68,0,0,0,0,.84c2.55,3.21,19.12,24.17,22.07,31.09,6.5,8.6,0,96.1,0,104.8,0,8.13-80,27-88.82,29a.69.69,0,0,0-.48.93h0a18.08,18.08,0,0,0,18.84,11.29l105.78-12a.72.72,0,0,1,.62.25l56.46,29a.67.67,0,0,0,.53.25H306.3a.7.7,0,0,0,.59-.32l-14.34-35a.7.7,0,0,1,.7-.32l78.36,19.07a30.31,30.31,0,0,0,26.58-8.76l3.4-3.49a.7.7,0,0,0-.21-1.12l-86.21-38.72a.66.66,0,0,1-.41-.58c-.33-6.27-4.19-81.65-2.18-90,2-11.85,24.63-41.58,28.61-46.73a.69.69,0,0,0-.34-1.08l-14.89-5a.68.68,0,0,0-.68.14l-30.17,27.08A.69.69,0,0,1,294,327L279.7,274.9a.7.7,0,0,0-1-.45l-19.28,9.13a.68.68,0,0,0-.39.73l5.7,36.47a.69.69,0,0,1-1.24.52l-27.18-35.92a.67.67,0,0,0-.88-.19L214.92,296.5a.7.7,0,0,0-.31.87l12,29.91a.69.69,0,0,1-1,.85l-38.69-23.41a.71.71,0,0,0-.92.18Z"/></svg>