<?xml version="1.0" encoding="utf-8"?>
<!-- Generator: Adobe Illustrator 24.0.1, SVG Export Plug-In . SVG Version: 6.00 Build 0)  -->
<svg version="1.1" id="Layer_1" xmlns="http://www.w3.org/2000/svg" xmlns:xlink="http://www.w3.org/1999/xlink" x="0px" y="0px"
	 viewBox="0 0 512 512" style="enable-background:new 0 0 512 512;" xml:space="preserve">
<g>
	<path d="M491.6,246.7c-4.3,0-8.6-1.4-12.3-4.2L256,72.2L32.7,242.5c-8.9,6.8-21.7,5.1-28.5-3.8c-6.8-8.9-5.1-21.7,3.8-28.5
		L237.3,35.3c5.5-4.2,11.9-6.4,18.7-6.4c6.8,0,13.2,2.2,18.7,6.4L504,210.1c8.9,6.8,10.7,19.6,3.8,28.5
		C503.8,243.9,497.8,246.7,491.6,246.7z"/>
</g>
<path d="M384,483.1H128c-22.5,0-44.1-11.7-59.3-32.2c-14.1-18.9-21.8-43.8-21.8-70V189.2c0-3,0.1-6.1,0.3-9.1l40.6,2.8
	c-0.1,2.1-0.2,4.3-0.2,6.3V381c0,33.3,18.5,61.4,40.5,61.4h256c21.9,0,40.5-28.1,40.5-61.4V189.2c0-2.1-0.1-4.2-0.2-6.3l40.6-2.8
	c0.2,3,0.3,6.1,0.3,9.1V381c0,26.2-7.8,51-21.8,70C428.1,471.4,406.5,483.1,384,483.1z"/>
<path d="M321.1,483.1c-11.2,0-20.3-9.1-20.3-20.3V285h-90.8v177.8c0,11.2-9.1,20.3-20.3,20.3s-20.3-9.1-20.3-20.3V275.5
	c0-17.2,14-31.2,31.2-31.2h109.8c17.2,0,31.2,14,31.2,31.2v187.3C341.4,474,332.3,483.1,321.1,483.1z"/>
</svg>
