<svg id="Camada_2" data-name="Camada 2" xmlns="http://www.w3.org/2000/svg" viewBox="0 0 188.64 210.24"><defs><style>.cls-1{fill:#fff;}</style></defs><title>germinando</title><path class="cls-1" d="M66,125.06a91.81,91.81,0,0,1,31.69,51.11c0-17.66-6.65-33.61-18.46-46.74S52.05,106.8,36,99.48c16.33-.41,28.77,3.83,39.7,16,2.89-7.14,6-13,2.61-19.85A27.73,27.73,0,0,0,61,81.37c-9.19-2.5-19.21-.1-28.31-2.89A26.45,26.45,0,0,1,14.46,54.7C11.31,67.12,8.4,79.8,10.4,92.46S18.59,117.48,29,125,55.12,131.84,66,125.06Z"/><path class="cls-1" d="M123.36,63.48a161.53,161.53,0,0,0-8.6,118,201.67,201.67,0,0,1,1.08-59.12c11.38,4.25,23.61-1.49,31.44-10.78s11-21.7,11.86-33.82-.17-24.29.43-36.42,3.06-24.61,10.17-34.46c-14.9,3.75-30.84,7.65-44.49,14.72S99.15,38.69,91.36,51.94s-10.47,29.93-5,44.31c2.57,6.82,7.41,13.36,14.42,15.35,1.24-9.19,2.75-18.1,6-26.8S115.47,68.34,123.36,63.48Z"/><path class="cls-1" d="M52.2,205.92h53.64s1.08-13-3.6-18.72S90.11,173.16,82,175,67.32,186.59,68.4,190.31C55.44,194,50.4,195.12,52.2,205.92Z"/><path class="cls-1" d="M117.33,205.92h56.55s1.8-8.64-5.76-11.88-11.52,0-11.52,0-3.6-20.66-20.16-19.33-19.08,13.62-19.08,15.57C117,193.68,117.33,205.92,117.33,205.92Z"/></svg>