<svg xmlns="http://www.w3.org/2000/svg" viewBox="0 0 512 512"><title>icones</title><g id="Camada_2" data-name="Camada 2"><path d="M425.72,103.2H97.24A11.48,11.48,0,0,0,85.8,114.64v28.67a11.48,11.48,0,0,0,11.44,11.44h13.33q13.59,159.51,27.17,319c.56,6.6,5.83,12,11.7,12H379.28c5.87,0,11.14-5.4,11.7-12q13.59-159.52,27.17-319h7.57a11.48,11.48,0,0,0,11.44-11.44V114.64A11.48,11.48,0,0,0,425.72,103.2ZM242.58,382.38v-4.64H224.06c-8.09,0-16.46,0-24.69,0A20.57,20.57,0,0,1,180,364.47a19.5,19.5,0,0,1,1.1-17.48c3.51-6.31,7.22-12.69,10.81-18.86.69-1.17,1.37-2.34,2-3.51l21.32,12.3L206,353.07h36.51v-4.63l29.46,17ZM272,271.18,262.59,255,244.3,286.62l4.06,2.38L219,306V272.05l4,2.27,4.09-7c.79-1.35,1.57-2.68,2.34-4l4.95-8.6c3.32-5.77,6.75-11.73,10.16-17.55a20.87,20.87,0,0,1,18.09-10.57h0a21,21,0,0,1,18.19,10.67c3.46,5.92,6.88,11.86,10.31,17.81q1.1,1.9,2.2,3.81Zm73.25,93.45a20.93,20.93,0,0,1-13.55,12.22,20,20,0,0,1-5.38.84c-7.55.08-15.24.07-22.69.06h-2.92V353.16h18.63L301,321.46l-4,2.29v-33.9l29.37,16.95-3.86,2.25,3,5.6c.22.42.43.82.65,1.2q2.83,4.9,5.68,9.8c3.95,6.81,8,13.85,12,20.8A20.91,20.91,0,0,1,345.22,364.63Zm13.53-187H172l-18.48-22.87H375.24Z"/><polygon points="112.44 105.78 117.48 79.77 144.12 75.72 144.12 25.32 166.44 30.36 166.44 49.08 186.6 57.72 190.2 70.68 206.04 72.84 213.96 98.76 208.2 111 112.44 105.78"/><polygon points="218.56 105.78 206.32 86.44 218.56 79.77 209.2 66.97 199.12 51.24 212.08 39 232.24 49.08 246.64 44.76 255.28 49.08 289.12 34.68 296.32 52.68 291.28 68.16 312.88 86.44 312.88 93.11 312.88 105.78 218.56 105.78"/><polygon points="391.36 105.78 403.6 86.44 391.36 79.77 400.72 66.97 410.8 51.24 397.84 39 377.68 49.08 363.28 44.76 354.64 49.08 320.8 34.68 313.6 52.68 318.64 68.16 297.04 86.44 297.04 93.11 297.04 105.78 391.36 105.78"/></g></svg>