<svg id="Camada_1" data-name="Camada 1" xmlns="http://www.w3.org/2000/svg" viewBox="0 0 512 512"><title>reutilize</title><path d="M395.4,169.79a136.79,136.79,0,0,1-12.15,56.52,4.76,4.76,0,0,1-.4,1.89L323.54,371.65c-1.45,3.5-4.52,6.36-6.82,6.36H279.38a11.74,11.74,0,0,0-.14-1.86c-.06-.37-2-14.18-1.17-34.66,1.19-28.32,7.76-69.39,32.24-105.19a154,154,0,0,1,18.33-22.14A12.5,12.5,0,0,0,311,196.48C284,223.42,265.75,259.4,257.61,301.22c-6.47-30.09-18.87-62.87-42.37-86.38a12.5,12.5,0,0,0-17.68,17.68,109.53,109.53,0,0,1,19.38,27c11,21.17,16.71,45.61,19.61,66.72a299.91,299.91,0,0,1,2.73,51c0,.24,0,.47,0,.71h-39.5c-2.3,0-5.37-2.86-6.82-6.36L133.63,228.2a4.76,4.76,0,0,1-.4-1.89c-.61-1.36-1.21-2.73-1.78-4.11,20-.85,42.15-11.18,66-30.81,29.41-24.18,37.36-53.89,44.38-80.11,8-29.72,14.95-55.86,50.05-74.48A137.21,137.21,0,0,1,395.4,169.79Z"/><rect x="193.89" y="388.8" width="128.7" height="31.01" rx="11.33"/><rect x="193.89" y="427.78" width="128.7" height="31.01" rx="11.33"/><rect x="200.93" y="467.06" width="114.62" height="31.01" rx="10.69"/><path d="M69,176.21c10.68-21,37.51-60.87,73.25-93.85C167.48,59.11,197.12,39.3,228.66,32c-60.34,42.57-93.7,82.87-112,112.8-18.83,30.79-21.74,50.6-21.74,50.6s8.64,10.22,26.94,10.58c14.67.31,35.56-5.73,63.2-28.45,55.14-45.34,27-110,85.62-149.45A135.15,135.15,0,0,1,297.3,14.46C205.32-2.48,41.4,15.17,69,176.21Z"/></svg>