<svg id="Camada_1" data-name="Camada 1" xmlns="http://www.w3.org/2000/svg" viewBox="0 0 512 512"><title>info</title><path d="M211.44,257.89q0-29.77-4.13-37t-15.25-8.63V199.75l109-14.88v173.7q0,32.85,5.79,42.89T328,414.81v12.06H187.81V414.81q13-1.41,18.31-8.74t5.32-31Zm47-172.76A47.32,47.32,0,0,1,292,98.49q14.18,13.35,14.18,31.31t-13.83,30.72q-13.81,12.76-33.91,12.77t-33.79-12.77Q211,147.77,211,129.8q0-18.44,13.82-31.55T258.47,85.13Z"/><path d="M257.88,498.64A242.64,242.64,0,0,1,86.31,84.43,242.64,242.64,0,1,1,429.45,427.57,241,241,0,0,1,257.88,498.64Zm0-445.95C145.77,52.69,54.57,143.89,54.57,256s91.2,203.31,203.31,203.31S461.19,368.11,461.19,256,370,52.69,257.88,52.69Z"/></svg>