<svg id="Camada_1" data-name="Camada 1" xmlns="http://www.w3.org/2000/svg" viewBox="0 0 512 512"><title>logo</title><path d="M251.19,498.63C71.16,460.2,3.43,239.43,125.35,102.28c2.62-3,4.88-6.22,5.62-7.17L178.71,127c2.54,15.87-4.16,33.57-15.7,52.28-43.88,71.13-25.23,161.17,42.77,212.85,9.51,7.22,13,14.41,12.68,25.91-.45,18.61,2.67,36.76,15.27,51.77,21.25,25.32,57.21,32.35,87.78,12.53,19.58-12.69,38.46-29.59,51.15-48.85,15.41-23.38,33.25-42.72,57.84-59.41l41.93,57.79c-35.69,35.67-76.95,59.54-126.81,67.84C341.77,500.38,311.08,507.1,251.19,498.63Z"/><path d="M235.56,339.77c1.67-52.72-12.75-102.15-31.21-150.79-4.75-12.52-9.5-25.16-12.76-38.12-5.21-20.71,1-32.25,21.57-36.78,42.76-9.39,85.5-9,126.27,8.86,47.11,20.62,65.54,61.05,69,108.76,4.36,60-6,118-32.68,172.36-13.35,27.19-31.23,51-58.45,66.21-42.4,23.72-80.79,5.34-85.3-42.87-2.15-22.93,2.24-46.46,3.5-69.73C235.84,351.72,235.56,345.74,235.56,339.77Z"/><path d="M429.76,147.68c-9.75-7.05-15.17-12.5-12.43-25.14,4-18.53-5.17-28.49-25.09-33-4.35-27.57-17.45-35.7-47.95-29.73-13-27.21-29.77-33.33-53.4-19.28L277.23,23.11C321.46,2.28,425.29,38.57,472,91.54Z"/><path d="M141.51,53.17c-.13-16.57,10.06-36.5,27.67-39.45,15.7-2.63,33,9.52,40.8,28.75,6,14.93,6.57,30-.22,44.8-10.92,23.78-37.65,29.09-54.58,9.17C146.1,85.75,141.64,69.75,141.51,53.17Z"/><path d="M226.29,59.21c.09-17.34,12.53-31.42,27.44-31.06,14.2.34,26.12,14.23,26.38,30.73.27,17.16-11.95,31.65-26.79,31.73S226.21,76.6,226.29,59.21Z"/><path d="M331.09,68.37c0,11.82-9.12,22.21-19.5,22.23s-19.36-10.2-19.35-22.23,9-22.3,19.35-22.29S331.08,56.59,331.09,68.37Z"/><path d="M343.28,91.53c-.35-12.51,8-22.07,17.94-21.43,11.29.73,16.85,8,17.67,18.61s-8.08,20.21-18,19.68C349.4,107.79,344.56,100.33,343.28,91.53Z"/><path d="M378.91,123.41c-.26-9.5,6-16.75,13.61-16.26,8.57.55,12.79,6,13.41,14.12s-6.13,15.33-13.67,14.93C383.55,135.74,379.88,130.08,378.91,123.41Z"/></svg>