<svg xmlns="http://www.w3.org/2000/svg" viewBox="0 0 512 512"><title>icones</title><g id="Camada_2" data-name="Camada 2"><path d="M487.72,242a12.75,12.75,0,0,0-2.39-7.55q-2.74-4.31-5.48-8.61-12-18.91-23.55-38.08-24.19-40.1-46.52-81.34c-4.45-8.3-13-15.09-19.21-15.09h-263c-6.17,0-14.77,6.79-19.21,15.09Q86,147.61,61.87,187.58q-11.55,19.15-23.52,38-2.57,4-5.14,8.08h0A15.89,15.89,0,0,0,29,244.46V379.74a30.07,30.07,0,0,0,.28,4.16h0a31.61,31.61,0,0,0,31.23,27.35H456.22a31.61,31.61,0,0,0,31.51-31.52V244.46q0-.51,0-1A11.83,11.83,0,0,1,487.72,242ZM88.8,205.49q19.52-40.87,39-81.78c2.54-5.29,9.08-9.64,14.56-9.64H375.7c5.47,0,12,4.35,14.55,9.64q19.51,40.9,39,81.78c2.52,5.31-1.59,9.65-9.15,9.65H98C90.4,215.14,86.28,210.8,88.8,205.49Zm68.46,75.07c0,5.57-5.38,10.53-11.95,11L83.87,295.8c-6.56.45-11.94-5.35-11.94-12.91V265c0-7.56,5.38-13.36,11.94-12.91l61.44,4.27c6.57.44,11.95,5.4,11.95,11ZM314.75,377A12.83,12.83,0,0,1,302,389.74H215.54A12.83,12.83,0,0,1,202.77,377v-8.85a12.82,12.82,0,0,1,12.77-12.78H302a12.82,12.82,0,0,1,12.77,12.78ZM415.93,295.8l-61.43-4.26c-6.57-.45-11.95-5.41-11.95-11V267.3c0-5.57,5.38-10.53,11.95-11l61.43-4.27c6.57-.45,11.95,5.35,11.95,12.91v17.92C427.88,290.45,422.5,296.25,415.93,295.8Z"/><path d="M58.89,224l-43,3.48c-8.73.71-15.87-6-15.87-15V198.63c0-8.94,7.14-15.69,15.87-15l43,3.48c8.73.7,15.87,6.69,15.87,13.31v10.22C74.76,217.27,67.62,223.26,58.89,224Z"/><path d="M459.51,224l38.34,3.48c7.78.71,14.15-6,14.15-15V198.63c0-8.94-6.37-15.69-14.15-15l-38.34,3.48c-7.79.7-14.15,6.69-14.15,13.31v10.22C445.36,217.27,451.72,223.26,459.51,224Z"/><rect x="29.03" y="372.53" width="69.19" height="100.37" rx="14.15"/><rect x="418.54" y="356.92" width="69.19" height="115.7" rx="15.19"/></g></svg>