<svg xmlns="http://www.w3.org/2000/svg" viewBox="0 0 512 512"><title>icones</title><g id="Camada_2" data-name="Camada 2"><path d="M448.9,101.9,434.17,80.2C429.22,72.92,420.11,67,413.92,67H100.1c-6.19,0-15.3,6-20.25,13.24L65.12,101.9a9.86,9.86,0,0,0-1.79,5.47V394.25a22.39,22.39,0,0,0,16.35,21.49,21.77,21.77,0,0,0,6,.82H428.38a22.06,22.06,0,0,0,5.61-.72,22.4,22.4,0,0,0,16.7-21.59V107.37A9.86,9.86,0,0,0,448.9,101.9ZM158.74,81.73a6.65,6.65,0,0,1,4.71-2H350.57a6.67,6.67,0,0,1,0,13.34H163.45a6.66,6.66,0,0,1-4.71-11.38Zm-55.09,55c0-9.92,6-19.1,15.91-24.18l5.49-2.83a36.59,36.59,0,0,1,16.69-4H367.31a56.86,56.86,0,0,1,25.92,6.16l1.22.63c9.87,5.08,15.92,14.27,15.92,24.19V227c0,4.54-7.95,8.26-17.67,8.26H121.32c-9.72,0-17.67-3.72-17.67-8.26Zm63.91,163.55a10.86,10.86,0,0,1-10.83,10.83H113.58a10.86,10.86,0,0,1-10.82-10.83V287.4a10.85,10.85,0,0,1,10.82-10.82h43.15a10.86,10.86,0,0,1,10.83,10.82ZM355.5,311.14a10.86,10.86,0,0,1-10.82-10.83V287.4a10.85,10.85,0,0,1,10.82-10.82h43.15a10.86,10.86,0,0,1,10.83,10.82v12.91a10.86,10.86,0,0,1-10.83,10.83Z"/><path d="M425.17,262.2l42.54,3.86c8.63.79,15.7-6.7,15.7-16.63V234.09c0-9.92-7.07-17.41-15.7-16.62l-42.54,3.86c-8.63.78-15.7,7.43-15.69,14.77v11.33C409.47,254.77,416.54,261.42,425.17,262.2Z"/><path d="M83.7,262.2l-42.53,3.86c-8.64.79-15.7-6.7-15.7-16.63V234.09c0-9.92,7.06-17.41,15.7-16.62l42.53,3.86c8.64.78,15.7,7.43,15.7,14.77v11.33C99.4,254.77,92.34,261.42,83.7,262.2Z"/><rect x="79.68" y="365.19" width="69.19" height="115.7" rx="15.19"/><rect x="364.8" y="365.19" width="69.19" height="115.7" rx="15.19"/></g></svg>