<svg xmlns="http://www.w3.org/2000/svg" viewBox="0 0 512 512"><title>icones</title><g id="Camada_2" data-name="Camada 2"><path d="M73.94,313.82l-65-24.49,36.54-19.87,84.44,7.63L105.36,293a130.2,130.2,0,0,0-20.88,14.05Z"/><path d="M128.14,431.93,91.6,451.79l14.82-67.92,11.12-5.05a128,128,0,0,0,23-9.78l0,0L167.65,357Z"/><polygon points="342.59 446.33 277.74 481.58 288.25 303.17 396.87 254.75 342.59 446.33"/><path d="M359.56,148.69A232.79,232.79,0,0,1,382.24,134l.61-.41a2.74,2.74,0,0,0,.57-.27l3.2-1.85c53.17-28.9,109.27-32.81,122.47-8.53S488.51,192.11,435.32,221L432,222.69l-.08,0a5.19,5.19,0,0,0-.5.31l-.92.42c-8.25,4.25-151.3,66.72-151.3,66.72a4.8,4.8,0,0,0-2,1.62l-97.8,43.62a4.76,4.76,0,0,0-2.92.35l-63.12,28.62c-20.8,6.34-37.35,4.19-41.67-3.76s2.87-23.06,19.69-37.13l58.17-37.28a5.11,5.11,0,0,0,1.84-2.23l91.83-59.71.08,0s113.08-72.86,113.49-73.79Z"/><polygon points="149.64 81.07 340.77 139.97 240.9 204.89 84.8 116.32 149.64 81.07"/></g></svg>